PathFileType	4	(X/Y/Z)	C:\Users\chris\Documents\GitHub\baseballds\vids\pitch5_Sports2D\pitch5_Sports2D_px_person01.trc
DataRate	CameraRate	NumFrames	NumMarkers	Units	OrigDataRate	OrigDataStartFrame	OrigNumFrames
30	30	9	22	m	30	130	149
Frame#	Time	Hip			RHip			RKnee			RAnkle			RBigToe			RSmallToe			RHeel			LHip			LKnee			LAnkle			LBigToe			LSmallToe			LHeel			Neck			Head			Nose			RShoulder			RElbow			RWrist			LShoulder			LElbow			LWrist		
		X1	Y1	Z1	X2	Y2	Z2	X3	Y3	Z3	X4	Y4	Z4	X5	Y5	Z5	X6	Y6	Z6	X7	Y7	Z7	X8	Y8	Z8	X9	Y9	Z9	X10	Y10	Z10	X11	Y11	Z11	X12	Y12	Z12	X13	Y13	Z13	X14	Y14	Z14	X15	Y15	Z15	X16	Y16	Z16	X17	Y17	Z17	X18	Y18	Z18	X19	Y19	Z19	X20	Y20	Z20	X21	Y21	Z21	X22	Y22	Z22
130	4.333333333333333	315.8689069629492	577.3940799984784	0.0	281.41955022252665	586.6888141432346	0.0	264.29107816098974	694.5583974153581	0.0	247.54460660828457	809.9098992497052	0.0	213.09548933670686	844.9863333602686	0.0	204.15938877837294	840.6552529587367	0.0	255.78381207405124	829.4408812227689	0.0	349.45017727032644	589.3784876106256	0.0	361.61795081180037	691.726460787957	0.0	364.21182980509525	771.010201768733	0.0	353.2433910201473	811.783965233355	0.0	373.5819917844988	809.4308467381641	0.0	364.05698315656207	779.7364864198463	0.0	310.3615507612918	394.7816711293251	0.0	317.525384206489	320.79336087949287	0.0	341.5700260960481	362.61755044642916	0.0	248.57510900862474	422.06756425370827	0.0	244.47254042592925	503.23511034894545	0.0	291.138716619018	536.7892120185924	0.0	371.04377721778917	420.54651126725287	0.0	382.8386112815467	502.5889824042643	0.0	336.978115748695	549.4467596397039	0.0
131	4.366666666666666	308.9555801527656	579.2348653212622	0.0	273.81367052627496	590.2699713993339	0.0	259.6738228787078	697.9804412485332	0.0	246.38159967449894	812.833666588946	0.0	213.84579521046015	852.8436959281743	0.0	203.38708376987077	847.4456577868887	0.0	256.2375759956201	832.2275120952113	0.0	342.9781808701275	592.4110507950445	0.0	356.84014373174114	692.0179048297166	0.0	362.84800638999513	769.1894547230163	0.0	353.30114679075257	812.0430308148058	0.0	373.3810025146538	808.9523693248718	0.0	363.9069299387329	776.8647094741881	0.0	302.1740444369633	394.86297539963147	0.0	309.7025514467936	321.32931359561394	0.0	334.7008247163118	362.24675338785374	0.0	241.2644654452456	421.90772993184515	0.0	237.56588069561522	503.5438689176412	0.0	283.5994496976906	535.4925639463735	0.0	362.4988305071507	419.0955225201417	0.0	375.72640061411016	501.266321994637	0.0	333.9401050834841	548.6165712377629	0.0
132	4.4	301.07710232755625	579.6796466434372	0.0	265.4708824550484	591.3034982548583	0.0	253.68511241313436	700.7999660306971	0.0	245.07419461683006	815.0796796992311	0.0	213.3182093687976	856.3904185687619	0.0	202.5973274502586	850.5260501642238	0.0	256.6464566050608	834.6440807929725	0.0	336.04021830570645	592.527034507049	0.0	352.2605890847744	691.4448626950634	0.0	361.37512750289943	768.4691297257357	0.0	353.20470386643177	813.224349928142	0.0	372.74691152502083	809.6900321396878	0.0	363.5086828938743	775.9886404760708	0.0	294.0200758600018	393.91992736956155	0.0	301.6230599396754	320.5287667638745	0.0	327.4135771021057	360.5085826233411	0.0	233.44230924084465	420.6460887891644	0.0	230.04986473302972	502.13785127764675	0.0	276.64359883964084	534.6244025054184	0.0	354.78508455502214	417.3354880240656	0.0	368.87760070655895	499.8650749875061	0.0	330.7305704142825	547.3614168082013	0.0
133	4.433333333333334	292.9545346201554	579.2968965879493	0.0	257.00536202496744	590.8607204144104	0.0	247.09659403610317	703.6155492827627	0.0	243.65595513800392	816.1948204670732	0.0	212.6036514868147	856.7124886902861	0.0	202.04437569733767	850.8442242600038	0.0	256.57917360297165	836.3585647108972	0.0	329.0236790494435	591.3095583077039	0.0	347.7986909190755	691.2567022543802	0.0	359.7409012331845	768.3705306191159	0.0	352.4643694461337	814.1543244216418	0.0	371.9709030344381	810.5141431701443	0.0	362.8184812503352	776.069682124861	0.0	285.9410824023041	392.1158974268761	0.0	293.96757021634625	318.5327461973515	0.0	320.09852950834323	358.13223614925187	0.0	225.05079202069294	419.137869465085	0.0	221.94389002179116	500.0651421393575	0.0	269.7717439668114	534.3527992813532	0.0	348.0961730755196	415.4827421806534	0.0	362.361563046633	498.5818749983238	0.0	322.1384012045489	544.5852295658322	0.0
134	4.466666666666667	285.50240786605	578.2494323053278	0.0	249.37534567205336	589.1438960426702	0.0	241.1809159863376	705.7424313420386	0.0	242.3235367711444	816.2051068685191	0.0	212.1243125812533	855.6680508546339	0.0	201.8417893394307	850.01889528794	0.0	255.84379163097893	836.825968762936	0.0	321.9281145872327	589.2447107020444	0.0	342.3781433870372	691.4266027126409	0.0	357.954068671532	767.2224051098609	0.0	351.04707651072584	813.660436655101	0.0	371.0447313256626	809.7675398671545	0.0	361.8086925434143	774.503831240885	0.0	278.26351408460107	389.8559480062085	0.0	287.0140758199906	316.00882952549347	0.0	312.68807209046554	355.8753029222195	0.0	216.52743616351523	417.5149155132609	0.0	213.82925763485562	498.3377006781626	0.0	263.40320650308325	532.3261352578849	0.0	341.903868264703	413.1955987490421	0.0	355.8870631805264	496.9360023501221	0.0	313.2962724376267	541.5486693079225	0.0
135	4.5	278.90133996275136	576.3925943384296	0.0	242.87682181775273	585.9052191867281	0.0	236.52845538183175	706.2135677054393	0.0	241.3581865287165	816.0516375143951	0.0	211.50812278002314	854.6227289211007	0.0	201.6573706774564	849.1036801947912	0.0	254.76376965669846	836.0046425554755	0.0	314.8688525221438	585.8777350419716	0.0	335.0432231636645	690.5822348071135	0.0	355.47978861611165	763.9004042311877	0.0	349.50303989145993	811.6179329117997	0.0	369.82520025746896	806.8132926951864	0.0	359.50574287506663	769.9822656599164	0.0	271.4436677397607	386.97597721297905	0.0	280.2900160598965	312.9163151776645	0.0	305.14051725943875	352.8854481326558	0.0	208.69198704205976	415.30331304233533	0.0	206.15112719637642	497.09469208669896	0.0	257.95001275452637	527.8832416608767	0.0	335.8516845227202	410.6137165449249	0.0	349.218985439195	495.26572202888536	0.0	310.86509321440735	541.1184627090084	0.0
136	4.533333333333333	273.052806108653	574.2134716956543	0.0	237.26237031360807	582.9632710510559	0.0	233.01560413030523	705.1821156555112	0.0	241.1744267084585	815.952650002376	0.0	211.1336273829862	854.2920108068193	0.0	201.27783758070464	848.5067723408879	0.0	254.38700440812175	834.5421947694715	0.0	308.5956245297602	582.45302272237	0.0	326.2882575737126	688.5877706174651	0.0	351.2385432404501	759.208178289555	0.0	348.1644143016832	809.2657066936362	0.0	368.3169306745525	803.0417132991306	0.0	354.43287424620445	763.9456985580223	0.0	265.3013957896368	383.166991364647	0.0	273.02911607457423	309.47734020302795	0.0	298.4178472080344	348.2180806643772	0.0	202.13008920240296	412.374946744615	0.0	199.04865851637044	496.0837504210182	0.0	252.2647541042906	523.8508691907903	0.0	329.6004933750592	408.2406075360978	0.0	342.2508365050628	494.2452356342934	0.0	312.6358359907182	543.5716628322543	0.0
137	4.566666666666666	268.0185618747055	572.281095416846	0.0	232.25726520601265	581.7226272943553	0.0	230.30096675835915	703.7114302475404	0.0	241.4776848469374	815.4715157075076	0.0	211.42925978747985	854.7199608313655	0.0	200.8152931267014	848.3869248553648	0.0	255.01711306506607	833.3722218203062	0.0	303.6392353407964	580.1509374377104	0.0	317.6193484929982	686.8244429922837	0.0	344.7140935263813	755.2670617478806	0.0	346.31960494283516	808.3045855660064	0.0	366.1117043113222	800.4518256324561	0.0	346.19252589208713	759.1284568428334	0.0	259.2493233159254	379.399941055666	0.0	265.48807238384603	306.3278732257631	0.0	293.11341820154263	343.38284055206003	0.0	196.4372628586327	409.50429640379735	0.0	192.52670500654523	495.349385697404	0.0	246.2716256783066	522.0788304131155	0.0	322.9669672461792	406.06109031528996	0.0	335.16251306931423	493.662236348825	0.0	311.22468829787704	545.2118085105661	0.0
138	4.6	263.39065358959834	570.4754220193361	0.0	227.46919107542078	580.5497551137072	0.0	228.0174609740761	702.6458591979114	0.0	241.16308012985388	814.6527777786225	0.0	211.83392831107486	854.9675938697776	0.0	200.42066279459752	848.3719242849626	0.0	255.3608188809547	832.8361711631063	0.0	299.3470872709029	577.7180899269317	0.0	309.61425984096036	685.7878150826291	0.0	336.4163775427791	753.93351306734	0.0	342.24279600589955	809.5095429379292	0.0	361.8286860854764	800.1631450691605	0.0	335.89493442200944	757.958940342849	0.0	253.4493086085465	377.25233637273016	0.0	259.0296003889847	302.98346308553937	0.0	288.2393036583222	340.4060090594712	0.0	190.49193756587044	407.58040716762764	0.0	186.27845838121326	494.6502341052077	0.0	242.39675851719656	520.9090411319311	0.0	316.77198749954925	403.9480816721928	0.0	328.94173185809365	492.65253822755136	0.0	303.466114801679	542.5807886587553	0.0
